<svg id="svg" version="1.1" xmlns="http://www.w3.org/2000/svg" xmlns:xlink="http://www.w3.org/1999/xlink" width="400" height="199.4" viewBox="0, 0, 400,199.4"><g id="svgg"><path id="path0" d="M178.066 42.772 L 178.066 49.850 284.596 49.843 L 391.127 49.836 392.722 46.913 C 393.599 45.306,395.282 42.255,396.461 40.135 C 397.640 38.014,398.604 36.147,398.604 35.986 C 398.604 35.728,385.238 35.693,288.335 35.693 L 178.066 35.693 178.066 42.772 M71.395 56.662 C 69.920 56.762,68.678 56.879,68.635 56.922 C 68.592 56.965,68.165 60.080,67.686 63.844 C 67.207 67.608,66.718 71.271,66.600 71.984 C 66.203 74.373,66.036 75.471,66.022 75.773 C 65.994 76.367,65.846 77.478,65.731 77.966 C 65.666 78.240,65.558 79.003,65.491 79.661 C 65.424 80.319,65.340 81.082,65.303 81.356 C 65.266 81.630,65.184 82.245,65.120 82.722 C 65.056 83.199,64.964 83.827,64.915 84.118 C 64.866 84.408,64.773 85.140,64.709 85.743 C 64.645 86.346,64.557 86.974,64.513 87.139 C 64.470 87.303,64.379 87.976,64.312 88.634 C 64.244 89.292,64.155 89.965,64.113 90.130 C 64.071 90.294,63.981 91.057,63.912 91.825 C 63.844 92.592,63.752 93.355,63.708 93.519 C 63.635 93.792,62.957 98.935,62.709 101.097 C 62.620 101.873,62.478 102.939,62.113 105.591 C 62.067 105.924,61.894 107.270,61.729 108.582 C 61.564 109.894,61.287 112.029,61.114 113.327 L 60.799 115.686 62.743 117.813 C 63.812 118.983,64.916 120.165,65.195 120.439 C 65.475 120.713,67.617 123.068,69.955 125.673 C 72.294 128.278,74.290 130.409,74.392 130.409 C 74.502 130.409,74.576 126.407,74.576 120.424 L 74.576 110.439 73.506 109.461 C 69.395 105.704,71.913 99.189,77.468 99.208 C 82.894 99.226,85.413 105.505,81.524 109.317 L 80.359 110.459 80.359 120.427 C 80.359 128.922,80.400 130.380,80.640 130.288 C 80.795 130.229,82.252 128.684,83.879 126.855 C 85.506 125.026,87.162 123.170,87.559 122.732 C 87.956 122.293,89.552 120.528,91.105 118.809 L 93.928 115.684 92.718 106.347 C 91.170 94.400,91.165 94.359,89.729 83.250 C 89.062 78.096,88.341 72.532,88.126 70.887 C 87.911 69.242,87.419 65.433,87.031 62.422 C 86.644 59.412,86.307 56.928,86.282 56.904 C 85.940 56.562,75.402 56.391,71.395 56.662 M75.329 136.537 C 74.297 136.619,73.641 137.237,72.518 139.188 C 72.079 139.950,70.788 142.869,70.788 143.098 C 70.788 143.138,72.089 143.170,73.679 143.170 L 76.570 143.170 76.570 139.781 C 76.570 137.916,76.503 136.407,76.421 136.427 C 76.338 136.447,75.847 136.496,75.329 136.537 M78.365 139.810 L 78.365 143.170 81.157 143.170 C 84.503 143.170,84.393 143.357,82.860 140.274 C 81.388 137.316,80.775 136.651,79.412 136.537 L 78.365 136.449 78.365 139.810 M69.890 137.303 C 68.334 138.115,63.809 142.272,63.809 142.891 C 63.809 143.116,64.299 143.170,66.311 143.170 L 68.814 143.170 69.115 142.423 C 69.844 140.616,70.512 139.230,71.327 137.836 L 71.823 136.989 71.156 136.990 C 70.789 136.991,70.219 137.132,69.890 137.303 M83.151 137.078 C 83.151 137.126,83.634 138.091,84.224 139.221 C 84.815 140.351,85.455 141.702,85.647 142.223 L 85.996 143.170 88.462 143.170 C 90.456 143.170,90.927 143.117,90.927 142.888 C 90.927 142.187,86.649 138.162,85.005 137.317 C 84.430 137.022,83.151 136.856,83.151 137.078 M63.310 139.059 C 62.762 139.317,61.986 139.788,61.585 140.104 C 61.185 140.419,60.605 140.857,60.296 141.077 C 59.404 141.710,58.225 142.802,58.225 142.994 C 58.225 143.091,58.966 143.168,59.870 143.165 L 61.515 143.159 62.368 141.984 C 62.837 141.338,63.622 140.362,64.113 139.817 C 65.386 138.401,65.159 138.186,63.310 139.059 M89.731 138.664 C 89.731 138.736,90.392 139.577,91.200 140.534 C 92.008 141.490,92.774 142.475,92.902 142.722 C 93.175 143.249,96.633 143.442,96.462 142.921 C 96.095 141.796,89.731 137.772,89.731 138.664 M51.321 146.810 C 49.018 149.178,46.264 152.868,46.262 153.589 C 46.261 153.671,46.867 153.737,47.607 153.734 L 48.953 153.730 49.950 151.598 C 50.499 150.425,51.514 148.610,52.207 147.564 C 53.930 144.965,53.929 144.965,53.483 144.965 C 53.280 144.965,52.309 145.794,51.321 146.810 M55.038 146.381 C 53.447 148.428,50.847 152.921,50.847 153.626 C 50.847 153.688,52.171 153.738,53.789 153.736 L 56.730 153.733 57.395 151.692 C 57.761 150.570,58.546 148.628,59.140 147.379 C 59.733 146.129,60.219 145.074,60.219 145.036 C 60.219 144.997,59.300 144.967,58.175 144.970 L 56.132 144.974 55.038 146.381 M60.935 147.607 C 59.717 150.117,58.624 152.893,58.624 153.478 C 58.624 153.697,59.343 153.737,62.449 153.693 L 66.275 153.639 66.517 152.243 C 66.817 150.517,66.923 150.026,67.174 149.199 C 67.283 148.840,67.380 148.481,67.391 148.401 C 67.401 148.321,67.494 147.941,67.597 147.557 C 67.700 147.173,67.815 146.660,67.852 146.416 C 67.889 146.172,67.981 145.910,68.057 145.834 C 68.765 145.126,68.237 144.965,65.206 144.965 L 62.217 144.965 60.935 147.607 M69.970 145.513 C 69.610 146.458,68.195 152.963,68.195 153.678 C 68.195 153.711,70.080 153.739,72.383 153.739 L 76.570 153.739 76.570 149.352 L 76.570 144.965 73.375 144.965 L 70.180 144.965 69.970 145.513 M78.365 149.347 L 78.365 153.739 82.441 153.739 C 84.683 153.739,86.555 153.671,86.601 153.589 C 86.717 153.383,85.847 148.827,85.297 146.760 L 84.845 145.065 81.605 145.010 L 78.365 144.955 78.365 149.347 M86.740 145.235 C 86.740 145.384,86.961 146.393,87.231 147.479 C 87.501 148.564,87.882 150.416,88.077 151.595 L 88.432 153.739 92.272 153.739 C 95.600 153.739,96.112 153.698,96.112 153.431 C 96.112 152.850,94.670 149.251,93.580 147.109 L 92.488 144.965 89.614 144.965 C 87.329 144.965,86.740 145.020,86.740 145.235 M94.516 145.094 C 94.516 145.165,94.900 145.995,95.369 146.938 C 96.353 148.920,96.896 150.264,97.532 152.293 L 97.985 153.739 100.825 153.739 C 102.387 153.739,103.710 153.667,103.764 153.579 C 104.033 153.143,100.569 147.265,99.011 145.513 C 98.544 144.988,94.516 144.612,94.516 145.094 M101.018 145.130 C 100.962 145.221,101.167 145.603,101.475 145.978 C 102.332 147.025,104.100 150.053,104.986 151.992 L 105.783 153.735 107.129 153.737 C 108.739 153.739,108.724 153.829,107.453 151.844 C 105.210 148.340,101.455 144.423,101.018 145.130 M45.098 155.882 C 44.313 157.407,43.309 161.444,43.139 163.759 L 43.011 165.503 44.836 165.503 L 46.660 165.503 46.661 164.457 C 46.663 162.976,47.176 159.751,47.759 157.562 C 48.032 156.536,48.255 155.660,48.255 155.615 C 48.255 155.313,45.261 155.566,45.098 155.882 M49.742 156.680 C 49.124 158.786,48.656 161.396,48.524 163.460 L 48.394 165.503 51.714 165.503 L 55.035 165.503 55.035 164.555 C 55.035 163.241,55.555 158.923,55.925 157.165 C 56.093 156.363,56.231 155.668,56.231 155.620 C 56.231 155.572,54.847 155.533,53.155 155.533 L 50.078 155.533 49.742 156.680 M57.842 156.281 C 57.451 157.744,57.024 160.852,56.897 163.161 L 56.768 165.503 61.086 165.503 L 65.404 165.503 65.404 164.037 C 65.404 162.556,65.699 158.226,65.920 156.481 L 66.039 155.533 62.040 155.533 L 58.041 155.533 57.842 156.281 M67.915 156.082 C 67.717 157.041,67.398 161.704,67.398 163.638 L 67.398 165.503 71.984 165.503 L 76.570 165.503 76.570 160.518 L 76.570 155.533 72.299 155.533 L 68.028 155.533 67.915 156.082 M78.365 160.518 L 78.365 165.503 82.951 165.503 L 87.537 165.503 87.535 163.759 C 87.533 162.078,87.262 158.137,87.028 156.381 L 86.915 155.533 82.640 155.533 L 78.365 155.533 78.365 160.518 M88.810 156.680 C 89.045 158.783,89.323 162.795,89.327 164.158 L 89.332 165.503 93.619 165.503 L 97.906 165.503 97.906 164.351 C 97.906 163.101,97.414 158.817,97.100 157.344 C 96.666 155.299,97.237 155.533,92.692 155.533 L 88.682 155.533 88.810 156.680 M98.576 156.082 C 98.955 157.836,99.499 161.698,99.616 163.460 L 99.752 165.503 103.047 165.503 L 106.341 165.503 106.220 163.559 C 106.083 161.355,105.683 159.094,105.056 156.979 L 104.628 155.533 101.543 155.533 L 98.458 155.533 98.576 156.082 M106.481 155.693 C 106.481 155.790,106.615 156.309,106.779 156.848 C 107.266 158.449,107.846 161.698,107.994 163.665 L 108.133 165.503 109.899 165.503 L 111.665 165.503 111.665 164.641 C 111.665 163.124,111.058 160.085,110.304 157.827 L 109.571 155.633 108.026 155.575 C 107.176 155.543,106.481 155.596,106.481 155.693 M43.149 169.097 C 43.292 170.983,43.910 173.686,44.699 175.872 L 45.166 177.168 46.736 177.227 C 48.289 177.285,48.305 177.281,48.178 176.828 C 47.268 173.580,46.660 170.165,46.660 168.296 L 46.660 167.298 44.837 167.298 L 43.014 167.298 43.149 169.097 M48.456 168.445 C 48.457 169.809,48.942 173.178,49.338 174.576 C 49.494 175.125,49.721 175.955,49.843 176.421 L 50.065 177.268 53.148 177.268 C 54.844 177.268,56.231 177.229,56.231 177.182 C 56.231 177.134,56.093 176.439,55.925 175.637 C 55.555 173.879,55.035 169.561,55.035 168.246 L 55.035 167.298 51.745 167.298 L 48.455 167.298 48.456 168.445 M56.830 168.552 C 56.830 169.242,56.957 170.837,57.114 172.097 C 57.405 174.447,57.493 174.954,57.864 176.421 L 58.078 177.268 62.063 177.268 L 66.048 177.268 65.922 176.221 C 65.676 174.170,65.410 170.364,65.407 168.843 L 65.404 167.298 61.117 167.298 L 56.830 167.298 56.830 168.552 M67.398 169.163 C 67.398 171.098,67.717 175.761,67.915 176.720 L 68.028 177.268 72.299 177.268 L 76.570 177.268 76.570 172.283 L 76.570 167.298 71.984 167.298 L 67.398 167.298 67.398 169.163 M78.365 172.283 L 78.365 177.268 82.633 177.268 L 86.902 177.268 87.023 176.321 C 87.280 174.323,87.534 170.715,87.536 169.043 L 87.537 167.298 82.951 167.298 L 78.365 167.298 78.365 172.283 M89.327 168.644 C 89.323 170.006,89.045 174.019,88.810 176.122 L 88.682 177.268 92.683 177.268 C 96.318 177.268,96.693 177.236,96.792 176.919 C 97.103 175.929,97.724 171.561,97.837 169.569 L 97.967 167.298 93.650 167.298 L 89.332 167.298 89.327 168.644 M99.524 170.239 C 99.387 171.856,99.102 174.032,98.891 175.074 C 98.681 176.116,98.507 177.036,98.506 177.119 C 98.505 177.201,99.882 177.268,101.566 177.268 L 104.628 177.268 105.056 175.823 C 105.683 173.708,106.083 171.447,106.220 169.242 L 106.341 167.298 103.058 167.298 L 99.774 167.298 99.524 170.239 M108.002 169.043 C 107.835 171.228,107.401 173.760,106.881 175.573 C 106.661 176.340,106.481 177.039,106.481 177.126 C 106.481 177.214,107.176 177.259,108.026 177.227 L 109.571 177.168 110.312 174.975 C 111.058 172.763,111.663 169.710,111.664 168.146 L 111.665 167.298 109.900 167.298 L 108.135 167.298 108.002 169.043 M46.261 179.196 C 46.261 179.424,48.086 182.309,48.825 183.250 C 51.606 186.790,55.381 189.642,52.863 186.301 C 52.301 185.555,51.192 183.626,50.397 182.013 L 48.953 179.082 47.607 179.072 C 46.867 179.067,46.261 179.123,46.261 179.196 M50.847 179.144 C 50.847 179.832,53.295 184.071,55.053 186.428 L 56.104 187.836 58.162 187.836 C 59.293 187.836,60.219 187.802,60.219 187.759 C 60.219 187.716,59.731 186.669,59.134 185.431 C 58.537 184.193,57.752 182.256,57.389 181.127 L 56.730 179.074 53.789 179.068 C 52.171 179.065,50.847 179.099,50.847 179.144 M58.624 179.359 C 58.624 179.933,60.211 183.872,61.236 185.843 L 62.273 187.836 65.141 187.836 C 68.095 187.836,68.517 187.716,68.069 186.999 C 67.981 186.856,67.882 186.560,67.850 186.341 C 67.818 186.122,67.732 185.808,67.659 185.643 C 67.586 185.479,67.503 185.209,67.475 185.045 C 67.372 184.440,67.171 183.522,66.909 182.453 C 66.761 181.849,66.581 180.997,66.510 180.558 C 66.244 178.932,66.604 179.063,62.399 179.063 C 59.192 179.063,58.624 179.107,58.624 179.359 M68.307 179.811 C 68.587 181.415,69.408 185.208,69.743 186.441 L 70.095 187.737 73.333 187.792 L 76.570 187.846 76.570 183.455 L 76.570 179.063 72.374 179.063 L 68.177 179.063 68.307 179.811 M78.365 183.455 L 78.365 187.846 81.605 187.792 L 84.845 187.737 85.473 185.244 C 85.818 183.873,86.231 181.922,86.391 180.907 L 86.682 179.063 82.523 179.063 L 78.365 179.063 78.365 183.455 M88.143 180.808 C 88.001 181.767,87.596 183.741,87.241 185.194 L 86.596 187.836 89.540 187.836 L 92.485 187.836 93.477 185.892 C 94.532 183.824,95.775 180.782,96.005 179.711 L 96.143 179.063 92.271 179.063 L 88.399 179.063 88.143 180.808 M97.332 181.107 C 96.968 182.231,96.185 184.159,95.593 185.392 C 95.001 186.625,94.516 187.680,94.516 187.735 C 94.516 187.791,95.442 187.836,96.574 187.836 L 98.632 187.836 99.628 186.491 C 101.298 184.235,101.836 183.384,102.781 181.498 C 104.080 178.908,104.203 179.063,100.841 179.063 L 97.994 179.063 97.332 181.107 M104.788 181.206 C 104.241 182.385,103.164 184.292,102.395 185.444 C 100.711 187.966,100.772 187.836,101.258 187.836 C 102.134 187.836,108.475 180.293,108.475 179.252 C 108.475 179.148,107.869 179.063,107.129 179.063 L 105.783 179.063 104.788 181.206 M178.066 192.024 L 178.066 199.202 289.033 199.202 C 373.386 199.202,400.000 199.147,400.000 198.970 C 400.000 198.842,399.493 197.788,398.873 196.627 C 397.568 194.182,397.370 193.812,394.618 188.684 L 392.558 184.845 285.312 184.845 L 178.066 184.845 178.066 192.024 M58.225 189.815 C 58.225 190.348,62.507 193.466,64.038 194.048 C 65.257 194.511,65.274 194.276,64.113 192.985 C 63.622 192.439,62.837 191.464,62.368 190.818 L 61.515 189.643 59.870 189.637 C 58.966 189.634,58.225 189.714,58.225 189.815 M63.913 189.823 C 63.446 190.579,69.325 195.617,70.946 195.851 C 71.847 195.981,71.884 195.799,71.186 194.677 C 70.855 194.144,70.197 192.813,69.723 191.720 L 68.863 189.731 66.451 189.675 C 64.960 189.640,63.991 189.697,63.913 189.823 M70.898 190.080 C 71.866 193.256,74.030 196.177,75.474 196.256 L 76.471 196.311 76.525 192.971 L 76.580 189.631 73.670 189.631 L 70.761 189.631 70.898 190.080 M78.365 193.040 L 78.365 196.448 79.412 196.316 C 80.767 196.145,81.384 195.471,82.857 192.556 C 84.418 189.466,84.514 189.631,81.157 189.631 L 78.365 189.631 78.365 193.040 M85.805 189.980 C 85.248 191.533,84.797 192.551,84.035 193.966 C 82.965 195.955,82.965 195.953,83.898 195.847 C 85.457 195.669,90.927 190.973,90.927 189.813 C 90.927 189.432,85.943 189.595,85.805 189.980 M92.618 190.479 C 92.313 190.945,91.538 191.921,90.897 192.649 C 89.442 194.299,89.421 194.533,90.773 194.019 C 92.287 193.444,96.510 190.357,96.510 189.826 C 96.510 189.715,95.796 189.631,94.842 189.631 L 93.174 189.631 92.618 190.479 M184.004 192.473 L 184.060 195.015 183.555 195.015 L 183.051 195.015 183.051 192.409 C 183.051 189.820,183.054 189.803,183.500 189.866 C 183.935 189.928,183.950 190.007,184.004 192.473 M187.733 191.382 L 188.534 192.833 188.634 191.382 C 188.722 190.096,188.779 189.930,189.133 189.930 C 189.508 189.930,189.535 190.082,189.587 192.473 L 189.643 195.015 189.153 195.015 C 188.748 195.015,188.511 194.745,187.801 193.470 L 186.939 191.924 186.881 193.470 C 186.829 194.851,186.781 195.015,186.432 195.015 C 186.065 195.015,186.042 194.863,186.042 192.409 C 186.042 189.148,186.384 188.940,187.733 191.382 M194.816 190.329 C 194.816 190.750,194.722 190.828,194.217 190.828 L 193.619 190.828 193.619 192.921 L 193.619 195.015 193.121 195.015 L 192.622 195.015 192.622 192.921 L 192.622 190.828 192.024 190.828 C 191.519 190.828,191.426 190.750,191.426 190.329 C 191.426 189.836,191.446 189.831,193.121 189.831 C 194.796 189.831,194.816 189.836,194.816 190.329 M199.801 190.329 C 199.801 190.800,199.741 190.828,198.704 190.828 C 197.618 190.828,197.607 190.834,197.607 191.426 C 197.607 192.011,197.629 192.024,198.604 192.024 C 199.468 192.024,199.601 192.077,199.601 192.423 C 199.601 192.768,199.468 192.822,198.604 192.822 L 197.607 192.822 197.607 193.519 L 197.607 194.217 198.804 194.217 C 199.867 194.217,200.000 194.262,200.000 194.616 C 200.000 194.984,199.867 195.015,198.305 195.015 L 196.610 195.015 196.610 192.423 L 196.610 189.831 198.205 189.831 C 199.774 189.831,199.801 189.839,199.801 190.329 M205.208 190.409 C 205.697 191.012,205.685 191.790,205.178 192.329 L 204.774 192.760 205.178 193.705 C 205.693 194.905,205.687 195.015,205.105 195.015 C 204.711 195.015,204.563 194.838,204.268 194.018 C 203.954 193.144,203.840 193.021,203.350 193.021 C 202.813 193.021,202.792 193.059,202.792 194.018 C 202.792 194.948,202.758 195.015,202.293 195.015 L 201.795 195.015 201.795 192.556 C 201.795 191.203,201.862 190.028,201.944 189.945 C 202.308 189.576,204.823 189.933,205.208 190.409 M209.204 191.376 L 210.070 192.921 210.169 191.428 C 210.251 190.211,210.334 189.922,210.618 189.868 C 210.936 189.807,210.967 190.034,210.967 192.422 C 210.967 195.698,210.627 195.908,209.276 193.465 L 208.475 192.015 208.416 193.515 C 208.364 194.851,208.316 195.015,207.968 195.015 C 207.600 195.015,207.577 194.863,207.577 192.423 C 207.577 189.143,207.854 188.965,209.204 191.376 M215.506 190.080 C 215.679 190.293,217.149 194.618,217.149 194.912 C 217.149 195.307,216.143 194.951,216.034 194.516 C 215.922 194.072,215.806 194.018,214.955 194.018 C 214.104 194.018,213.988 194.072,213.876 194.516 C 213.783 194.888,213.619 195.015,213.235 195.015 C 212.865 195.015,212.751 194.933,212.831 194.724 C 212.892 194.564,213.265 193.398,213.661 192.132 C 214.401 189.760,214.847 189.264,215.506 190.080 M221.492 189.999 C 221.928 190.276,221.544 190.828,220.916 190.828 L 220.339 190.828 220.339 192.921 L 220.339 195.015 219.840 195.015 L 219.342 195.015 219.342 192.921 L 219.342 190.828 218.744 190.828 C 218.239 190.828,218.146 190.750,218.146 190.329 C 218.146 189.810,220.784 189.550,221.492 189.999 M224.084 192.475 L 224.140 195.015 223.635 195.015 L 223.131 195.015 223.131 192.556 C 223.131 190.031,223.187 189.774,223.719 189.876 C 223.975 189.925,224.037 190.370,224.084 192.475 M229.294 190.120 C 230.497 190.742,230.718 193.615,229.635 194.547 C 228.291 195.702,226.338 194.892,226.027 193.050 C 225.632 190.711,227.389 189.135,229.294 190.120 M233.028 189.983 C 233.153 190.064,233.602 190.758,234.025 191.525 L 234.796 192.921 234.895 191.426 C 234.984 190.096,235.039 189.930,235.394 189.930 C 235.769 189.930,235.796 190.082,235.848 192.473 L 235.904 195.015 235.350 195.014 C 234.869 195.012,234.690 194.822,233.998 193.568 L 233.200 192.124 233.142 193.569 C 233.086 194.956,233.063 195.015,232.593 195.015 L 232.104 195.015 232.104 192.556 C 232.104 189.813,232.228 189.466,233.028 189.983 M240.251 190.179 C 240.352 190.371,240.751 191.538,241.136 192.772 L 241.837 195.015 241.279 195.015 C 240.850 195.015,240.692 194.900,240.596 194.516 C 240.486 194.078,240.364 194.018,239.581 194.018 C 238.799 194.018,238.677 194.078,238.566 194.516 C 238.471 194.898,238.312 195.015,237.889 195.015 L 237.336 195.015 238.089 192.636 C 238.504 191.327,238.902 190.161,238.975 190.043 C 239.184 189.705,240.048 189.797,240.251 190.179 M244.423 192.076 L 244.480 194.217 245.570 194.217 C 246.527 194.217,246.660 194.266,246.660 194.616 C 246.660 194.982,246.527 195.015,245.065 195.015 L 243.470 195.015 243.470 192.556 C 243.470 190.031,243.526 189.774,244.058 189.876 C 244.310 189.924,244.377 190.331,244.423 192.076 M253.702 190.060 C 254.587 190.525,254.742 191.426,253.938 191.426 C 253.638 191.426,253.440 191.312,253.440 191.140 C 253.440 190.783,252.670 190.520,252.404 190.787 C 252.012 191.179,252.351 191.676,253.235 192.001 C 254.627 192.515,255.044 193.781,254.123 194.702 C 253.649 195.176,251.951 195.121,251.446 194.616 C 250.874 194.045,250.919 193.420,251.532 193.420 C 251.842 193.420,252.063 193.564,252.144 193.819 C 252.231 194.094,252.445 194.217,252.838 194.217 C 254.013 194.217,253.693 193.248,252.350 192.735 C 250.970 192.208,250.637 191.220,251.536 190.320 C 252.072 189.784,252.973 189.676,253.702 190.060 M259.636 190.413 C 260.367 191.144,260.418 191.825,259.742 191.825 C 259.406 191.825,259.230 191.684,259.146 191.348 C 258.895 190.348,257.775 190.472,257.423 191.539 C 256.819 193.370,258.388 195.339,259.120 193.669 C 259.380 193.078,260.219 193.046,260.219 193.628 C 260.219 195.800,256.680 195.380,256.349 193.169 C 255.954 190.538,258.025 188.802,259.636 190.413 M263.171 190.990 L 263.232 192.047 263.969 191.985 L 264.706 191.924 264.767 190.865 C 264.822 189.903,264.868 189.811,265.265 189.868 C 265.686 189.928,265.705 190.026,265.759 192.473 L 265.815 195.015 265.310 195.015 C 264.832 195.015,264.806 194.959,264.806 193.918 L 264.806 192.822 264.008 192.822 L 263.210 192.822 263.210 193.918 C 263.210 194.955,263.183 195.015,262.712 195.015 L 262.213 195.015 262.213 192.556 C 262.213 190.031,262.270 189.774,262.802 189.875 C 263.025 189.918,263.128 190.228,263.171 190.990 M271.255 190.408 C 271.972 191.126,271.992 193.541,271.288 194.378 C 270.350 195.493,268.431 195.229,267.879 193.909 C 266.753 191.214,269.359 188.512,271.255 190.408 M277.311 190.520 C 277.829 191.121,277.964 193.275,277.535 194.081 C 276.789 195.481,274.473 195.372,273.861 193.909 C 272.704 191.139,275.490 188.402,277.311 190.520 M280.758 192.026 L 280.857 194.118 281.904 194.178 C 283.859 194.290,283.384 195.015,281.356 195.015 L 279.761 195.015 279.761 192.556 C 279.761 190.031,279.817 189.774,280.349 189.876 C 280.597 189.923,280.678 190.349,280.758 192.026 M290.499 190.115 C 291.704 190.737,291.977 193.398,290.943 194.432 C 289.410 195.964,287.332 194.881,287.345 192.557 C 287.358 190.291,288.752 189.211,290.499 190.115 M296.474 190.379 C 296.533 190.794,296.462 190.828,295.527 190.828 C 294.077 190.828,293.927 191.958,295.364 192.062 C 296.058 192.113,296.211 192.196,296.211 192.522 C 296.211 192.849,296.058 192.932,295.364 192.983 L 294.516 193.044 294.516 194.029 C 294.516 194.948,294.482 195.015,294.018 195.015 L 293.519 195.015 293.519 192.556 C 293.519 189.671,293.444 189.798,295.106 189.872 C 296.287 189.925,296.417 189.973,296.474 190.379 M302.453 191.085 L 302.513 192.240 303.400 191.035 C 304.212 189.931,304.773 189.586,305.147 189.959 C 305.218 190.030,304.960 190.518,304.574 191.044 L 303.872 192.001 304.578 193.403 C 305.427 195.090,305.421 195.015,304.710 195.015 C 304.212 195.015,304.080 194.884,303.708 194.018 C 303.124 192.660,302.493 192.860,302.493 194.404 C 302.493 194.950,302.429 195.015,301.894 195.015 L 301.296 195.015 301.296 192.556 C 301.296 189.955,301.341 189.780,301.986 189.872 C 302.334 189.922,302.402 190.098,302.453 191.085 M308.076 192.026 L 308.175 194.118 308.774 194.118 L 309.372 194.118 309.430 192.126 C 309.492 189.982,309.593 189.716,310.267 189.929 C 310.949 190.146,310.809 194.059,310.098 194.634 C 309.472 195.140,308.079 195.143,307.458 194.640 C 306.884 194.176,306.591 190.337,307.104 190.007 C 307.817 189.549,307.973 189.874,308.076 192.026 M312.929 189.946 C 313.118 190.018,313.321 190.572,313.476 191.441 C 313.787 193.178,313.931 193.175,314.243 191.426 C 314.513 189.915,314.643 189.734,315.328 189.906 C 315.719 190.004,315.813 190.232,316.040 191.628 C 316.184 192.513,316.333 193.206,316.371 193.167 C 316.409 193.129,316.580 192.432,316.752 191.617 C 317.091 190.004,317.312 189.615,317.679 189.982 C 318.163 190.466,317.028 194.903,316.401 194.977 C 315.842 195.043,315.697 194.740,315.344 192.772 C 315.144 191.656,314.936 191.859,314.627 193.470 C 314.371 194.807,314.310 194.920,313.816 194.977 C 313.223 195.046,313.222 195.045,312.557 191.972 C 312.155 190.116,312.236 189.679,312.929 189.946 M321.568 190.080 C 321.692 190.279,323.221 194.777,323.228 194.965 C 323.242 195.310,322.185 194.913,322.034 194.516 C 321.870 194.087,321.721 194.018,320.946 194.018 C 320.154 194.018,320.033 194.077,319.922 194.516 C 319.806 194.980,318.843 195.291,318.843 194.866 C 318.843 193.697,320.538 189.831,321.050 189.831 C 321.249 189.831,321.482 189.943,321.568 190.080 M325.779 192.475 L 325.834 195.015 325.330 195.015 L 324.826 195.015 324.826 192.556 C 324.826 190.031,324.882 189.774,325.414 189.876 C 325.670 189.925,325.732 190.370,325.779 192.475 M330.971 190.379 C 331.025 190.761,330.943 190.828,330.423 190.828 L 329.811 190.828 329.811 192.921 L 329.811 195.015 329.312 195.015 L 328.814 195.015 328.814 192.921 L 328.814 190.828 328.215 190.828 C 327.708 190.828,327.617 190.751,327.617 190.321 C 327.617 189.575,330.865 189.631,330.971 190.379 M227.517 191.027 C 227.016 191.528,226.970 193.118,227.437 193.786 C 228.201 194.876,229.402 193.865,229.244 192.265 C 229.103 190.833,228.293 190.252,227.517 191.027 M269.105 190.894 C 268.581 191.276,268.436 193.049,268.873 193.716 C 269.284 194.343,270.272 194.410,270.581 193.832 C 271.432 192.243,270.311 190.012,269.105 190.894 M275.254 190.781 C 274.561 191.244,274.345 193.001,274.887 193.774 C 275.285 194.343,276.271 194.377,276.563 193.832 C 277.338 192.384,276.339 190.056,275.254 190.781 M288.846 190.894 C 288.322 191.276,288.177 193.049,288.614 193.716 C 289.428 194.958,290.650 193.957,290.480 192.187 C 290.385 191.196,290.003 190.628,289.432 190.628 C 289.309 190.628,289.045 190.748,288.846 190.894 M202.792 191.426 C 202.792 192.187,204.253 192.360,204.486 191.627 C 204.676 191.030,204.446 190.828,203.577 190.828 C 202.837 190.828,202.792 190.862,202.792 191.426 M214.686 191.775 C 214.620 192.076,214.508 192.525,214.438 192.772 C 214.325 193.169,214.382 193.220,214.936 193.220 C 215.602 193.220,215.627 193.022,215.130 191.675 C 214.915 191.090,214.831 191.109,214.686 191.775 M239.322 191.970 C 238.988 193.086,239.015 193.220,239.581 193.220 C 240.146 193.220,240.195 192.924,239.805 191.847 L 239.561 191.172 239.322 191.970 M320.661 192.115 C 320.369 193.276,320.349 193.220,321.058 193.220 C 321.567 193.220,321.654 193.158,321.543 192.871 C 321.469 192.679,321.358 192.274,321.296 191.970 C 321.122 191.104,320.903 191.154,320.661 192.115 " stroke="none" fill="#db732c" fill-rule="evenodd"></path><path id="path1" d="M254.437 52.980 C 233.896 54.186,222.619 65.824,223.184 85.233 C 223.632 100.586,230.695 110.951,249.053 123.195 C 251.959 125.134,254.382 126.767,254.437 126.824 C 254.492 126.881,255.120 127.350,255.833 127.864 C 256.545 128.379,257.218 128.872,257.328 128.960 C 267.108 136.777,270.195 142.006,269.721 149.950 C 269.235 158.108,265.183 162.065,257.735 161.658 C 249.640 161.216,245.953 155.760,244.368 141.874 C 244.192 140.339,244.003 138.701,243.946 138.235 L 243.844 137.388 232.061 137.388 L 220.278 137.388 220.410 140.009 C 221.879 169.028,233.356 182.054,257.455 182.054 C 281.045 182.054,292.819 171.006,293.263 148.455 C 293.598 131.452,287.464 121.966,266.700 107.371 C 250.657 96.095,246.443 91.074,246.468 83.268 C 246.488 76.753,249.180 73.454,254.935 72.891 C 263.349 72.069,268.273 79.337,269.990 95.115 C 270.116 96.266,270.258 97.410,270.307 97.657 L 270.396 98.106 281.842 98.106 L 293.288 98.106 293.193 96.162 C 291.696 65.664,279.017 51.536,254.437 52.980 M178.291 54.705 C 178.124 54.906,178.078 71.249,178.115 117.568 L 178.166 180.160 190.180 180.211 L 202.194 180.262 202.144 117.399 L 202.094 54.536 190.305 54.485 C 180.552 54.442,178.477 54.480,178.291 54.705 M310.309 54.676 C 310.124 54.861,310.070 69.108,310.070 117.587 L 310.070 180.259 321.934 180.259 L 333.797 180.259 333.848 150.935 L 333.898 121.611 336.373 126.159 C 337.734 128.661,341.605 135.823,344.975 142.074 C 348.344 148.325,352.076 155.241,353.267 157.442 C 354.459 159.644,357.722 165.675,360.518 170.846 L 365.603 180.247 377.921 180.253 L 390.240 180.259 389.909 179.611 C 389.728 179.255,383.816 168.330,376.773 155.334 C 358.949 122.447,355.749 116.526,355.626 116.205 C 355.567 116.051,356.274 114.540,357.197 112.848 C 360.018 107.676,371.200 87.044,375.075 79.860 C 377.087 76.132,380.949 68.998,383.657 64.008 C 386.365 59.018,388.543 54.868,388.496 54.786 C 388.449 54.703,382.947 54.636,376.269 54.636 L 364.127 54.636 363.444 55.882 C 363.068 56.568,358.251 65.474,352.740 75.673 C 347.228 85.872,340.734 97.888,338.308 102.375 L 333.898 110.533 333.848 82.615 L 333.797 54.697 331.673 54.567 C 327.704 54.324,310.574 54.411,310.309 54.676 M183.095 192.470 C 183.144 194.610,183.194 194.919,183.500 194.977 C 183.817 195.038,183.848 194.817,183.848 192.537 C 183.848 190.150,183.829 190.030,183.444 190.030 C 183.056 190.030,183.041 190.132,183.095 192.470 M186.241 192.524 C 186.241 195.531,186.668 196.052,186.839 193.254 L 186.939 191.625 187.858 193.270 C 189.223 195.715,189.432 195.618,189.432 192.537 C 189.432 190.441,189.383 190.030,189.133 190.030 C 188.891 190.030,188.833 190.345,188.833 191.665 C 188.833 193.517,188.799 193.513,187.677 191.525 C 186.446 189.346,186.241 189.489,186.241 192.524 M191.426 190.329 C 191.426 190.528,191.625 190.628,192.024 190.628 L 192.622 190.628 192.622 192.822 C 192.622 194.869,192.648 195.015,193.014 195.015 C 193.376 195.015,193.411 194.851,193.463 192.871 L 193.519 190.728 194.167 190.665 C 195.685 190.519,194.879 190.030,193.121 190.030 C 191.747 190.030,191.426 190.087,191.426 190.329 M196.810 192.522 L 196.810 195.015 198.305 195.015 C 199.668 195.015,199.801 194.980,199.801 194.616 C 199.801 194.266,199.668 194.217,198.704 194.217 L 197.607 194.217 197.607 193.519 C 197.607 192.825,197.612 192.822,198.504 192.822 C 199.269 192.822,199.402 192.762,199.402 192.423 C 199.402 192.083,199.269 192.024,198.504 192.024 C 197.612 192.024,197.607 192.020,197.607 191.326 L 197.607 190.628 198.704 190.628 C 199.546 190.628,199.801 190.559,199.801 190.329 C 199.801 190.090,199.501 190.030,198.305 190.030 L 196.810 190.030 196.810 192.522 M201.994 192.522 C 201.994 194.882,202.015 195.015,202.393 195.015 C 202.743 195.015,202.792 194.882,202.792 193.918 C 202.792 192.299,203.743 192.252,204.315 193.843 C 204.667 194.822,204.952 195.133,205.359 194.984 C 205.463 194.946,205.350 194.426,205.108 193.827 C 204.685 192.781,204.682 192.726,205.026 192.382 C 206.138 191.270,205.200 190.030,203.246 190.030 L 201.994 190.030 201.994 192.522 M207.577 192.522 C 207.577 194.605,207.626 195.015,207.876 195.015 C 208.117 195.015,208.175 194.705,208.175 193.420 C 208.175 191.436,208.290 191.435,209.387 193.417 C 210.620 195.642,210.768 195.546,210.768 192.522 C 210.768 190.994,210.691 190.030,210.568 190.030 C 210.453 190.030,210.369 190.657,210.369 191.514 C 210.369 193.485,210.193 193.500,209.156 191.618 C 207.836 189.222,207.577 189.370,207.577 192.522 M214.456 190.265 C 214.114 191.186,212.961 194.723,212.961 194.855 C 212.961 195.249,213.565 194.964,213.677 194.516 C 213.851 193.822,216.152 193.735,216.152 194.423 C 216.152 194.815,216.652 195.179,216.879 194.952 C 217.173 194.658,215.421 190.129,214.988 190.066 C 214.750 190.031,214.510 190.120,214.456 190.265 M218.345 190.316 C 218.345 190.479,218.579 190.629,218.893 190.665 L 219.442 190.728 219.498 192.871 C 219.543 194.572,219.614 195.015,219.840 195.015 C 220.067 195.015,220.138 194.572,220.183 192.871 L 220.239 190.728 220.788 190.665 C 222.089 190.515,221.365 190.030,219.840 190.030 C 218.675 190.030,218.345 190.093,218.345 190.316 M223.330 192.522 C 223.330 194.605,223.379 195.015,223.629 195.015 C 223.879 195.015,223.928 194.605,223.928 192.522 C 223.928 190.440,223.879 190.030,223.629 190.030 C 223.379 190.030,223.330 190.440,223.330 192.522 M226.931 190.379 C 225.522 191.520,226.339 195.015,228.014 195.015 C 229.482 195.015,230.202 194.027,230.069 192.194 C 229.929 190.257,228.268 189.296,226.931 190.379 M232.347 192.456 C 232.414 195.384,232.901 196.230,232.901 193.420 C 232.901 191.447,233.037 191.445,234.153 193.406 C 235.387 195.573,235.494 195.505,235.494 192.539 C 235.494 190.999,235.416 190.030,235.294 190.030 C 235.178 190.030,235.095 190.695,235.095 191.625 C 235.095 193.617,234.937 193.617,233.862 191.625 C 232.557 189.208,232.275 189.363,232.347 192.456 M238.428 192.282 C 238.021 193.521,237.687 194.643,237.687 194.775 C 237.687 195.203,238.090 195.029,238.285 194.516 C 238.456 194.068,238.585 194.018,239.573 194.018 C 240.577 194.018,240.681 194.060,240.795 194.516 C 240.918 195.006,241.476 195.231,241.476 194.791 C 241.476 194.667,241.148 193.546,240.748 192.298 C 239.743 189.161,239.456 189.159,238.428 192.282 M243.669 192.522 L 243.669 195.015 245.065 195.015 C 246.328 195.015,246.461 194.977,246.461 194.616 C 246.461 194.266,246.328 194.217,245.364 194.217 L 244.267 194.217 244.267 192.124 C 244.267 190.395,244.215 190.030,243.968 190.030 C 243.718 190.030,243.669 190.440,243.669 192.522 M251.645 190.429 C 250.826 191.248,251.172 192.107,252.569 192.725 C 253.449 193.114,253.639 193.286,253.639 193.694 C 253.639 194.552,252.207 194.648,251.941 193.808 C 251.781 193.306,251.246 193.303,251.246 193.804 C 251.246 194.585,252.345 195.183,253.326 194.937 C 255.058 194.502,254.836 192.716,252.962 192.018 C 252.307 191.774,252.144 191.615,252.144 191.221 C 252.144 190.537,253.069 190.416,253.507 191.042 C 253.695 191.310,253.933 191.432,254.125 191.358 C 254.948 191.043,253.969 190.030,252.841 190.030 C 252.310 190.030,251.911 190.163,251.645 190.429 M257.030 190.527 C 255.531 192.123,256.737 195.301,258.703 194.932 C 259.702 194.745,260.608 193.220,259.721 193.220 C 259.556 193.220,259.422 193.341,259.422 193.489 C 259.422 193.849,258.772 194.417,258.359 194.417 C 257.342 194.417,256.718 191.765,257.542 190.941 C 258.060 190.423,258.798 190.551,259.182 191.225 C 259.595 191.952,260.020 192.003,260.020 191.326 C 260.020 190.057,257.983 189.513,257.030 190.527 M262.413 192.522 C 262.413 194.605,262.462 195.015,262.712 195.015 C 262.941 195.015,263.011 194.760,263.011 193.918 L 263.011 192.822 263.908 192.822 L 264.806 192.822 264.806 193.918 C 264.806 194.882,264.854 195.015,265.204 195.015 C 265.582 195.015,265.603 194.882,265.603 192.522 C 265.603 190.163,265.582 190.030,265.204 190.030 C 264.859 190.030,264.806 190.163,264.806 191.027 L 264.806 192.024 263.908 192.024 L 263.011 192.024 263.011 191.027 C 263.011 190.274,262.938 190.030,262.712 190.030 C 262.462 190.030,262.413 190.440,262.413 192.522 M268.313 190.643 C 267.161 192.013,267.769 194.643,269.304 194.931 C 271.216 195.289,272.391 193.262,271.502 191.136 C 270.961 189.841,269.215 189.571,268.313 190.643 M274.295 190.643 C 273.174 191.976,273.792 194.650,275.287 194.931 C 277.193 195.288,278.370 193.256,277.484 191.136 C 276.943 189.841,275.197 189.571,274.295 190.643 M279.960 192.522 L 279.960 195.015 281.356 195.015 C 282.619 195.015,282.752 194.977,282.752 194.616 C 282.752 194.266,282.619 194.217,281.655 194.217 L 280.558 194.217 280.558 192.124 C 280.558 190.395,280.506 190.030,280.259 190.030 C 280.009 190.030,279.960 190.440,279.960 192.522 M288.381 190.163 C 287.381 190.565,287.202 193.513,288.120 194.432 C 289.530 195.842,291.326 194.714,291.326 192.420 C 291.326 190.486,290.035 189.498,288.381 190.163 M293.719 192.522 C 293.719 194.605,293.768 195.015,294.018 195.015 C 294.247 195.015,294.317 194.761,294.317 193.930 L 294.317 192.844 295.149 192.783 C 296.339 192.695,296.408 192.223,295.231 192.223 L 294.317 192.223 294.317 191.426 L 294.317 190.628 295.314 190.628 C 296.067 190.628,296.311 190.555,296.311 190.329 C 296.311 190.094,296.034 190.030,295.015 190.030 L 293.719 190.030 293.719 192.522 M301.496 192.537 C 301.496 194.817,301.527 195.038,301.844 194.978 C 302.081 194.933,302.215 194.688,302.259 194.216 C 302.411 192.595,303.225 192.451,303.944 193.918 C 304.243 194.526,304.616 195.015,304.783 195.015 C 305.202 195.015,305.177 194.919,304.387 193.506 C 303.534 191.981,303.533 192.086,304.396 190.956 C 305.021 190.138,305.057 190.030,304.708 190.030 C 304.451 190.030,304.019 190.449,303.473 191.226 C 303.012 191.884,302.557 192.423,302.464 192.423 C 302.370 192.423,302.293 191.884,302.293 191.226 C 302.293 190.163,302.249 190.030,301.894 190.030 C 301.517 190.030,301.496 190.163,301.496 192.537 M307.198 191.524 C 306.932 194.455,308.124 195.897,309.826 194.705 C 310.395 194.306,310.527 190.030,309.970 190.030 C 309.725 190.030,309.671 190.380,309.671 191.984 C 309.671 194.039,309.532 194.417,308.774 194.417 C 308.016 194.417,307.876 194.039,307.876 191.984 C 307.876 189.472,307.412 189.157,307.198 191.524 M312.472 190.379 C 312.486 190.904,313.383 194.805,313.521 194.944 C 313.873 195.296,314.199 194.682,314.530 193.044 C 314.980 190.815,315.110 190.706,315.428 192.285 C 315.898 194.616,316.053 195.044,316.399 194.977 C 316.777 194.905,317.919 190.185,317.590 190.055 C 317.280 189.933,317.100 190.408,316.832 192.055 C 316.471 194.278,316.267 194.177,315.846 191.562 C 315.457 189.156,314.835 189.301,314.343 191.915 C 313.918 194.173,313.814 194.164,313.361 191.829 C 313.047 190.213,312.441 189.225,312.472 190.379 M319.855 192.173 C 319.491 193.352,319.148 194.474,319.094 194.666 C 319.030 194.894,319.107 195.015,319.315 195.015 C 319.490 195.015,319.691 194.786,319.761 194.507 C 319.944 193.779,322.093 193.831,322.197 194.566 C 322.238 194.855,322.399 195.015,322.646 195.015 C 323.133 195.015,323.157 195.196,322.296 192.409 C 321.263 189.066,320.830 189.024,319.855 192.173 M324.869 192.470 C 324.918 194.610,324.968 194.919,325.274 194.977 C 325.592 195.038,325.623 194.817,325.623 192.537 C 325.623 190.150,325.604 190.030,325.218 190.030 C 324.830 190.030,324.816 190.132,324.869 192.470 M327.617 190.329 C 327.617 190.528,327.817 190.628,328.215 190.628 L 328.814 190.628 328.814 192.822 C 328.814 194.869,328.840 195.015,329.206 195.015 C 329.568 195.015,329.602 194.851,329.654 192.871 L 329.711 190.728 330.359 190.665 C 331.876 190.519,331.070 190.030,329.312 190.030 C 327.938 190.030,327.617 190.087,327.617 190.329 M204.271 190.749 C 205.192 191.103,204.510 192.223,203.374 192.223 C 202.828 192.223,202.792 192.174,202.792 191.426 C 202.792 190.597,203.285 190.371,204.271 190.749 M228.998 190.941 C 230.023 191.965,229.384 194.417,228.094 194.417 C 227.038 194.417,226.459 192.172,227.230 191.071 C 227.598 190.545,228.534 190.476,228.998 190.941 M270.677 191.071 C 271.230 191.861,271.006 193.799,270.309 194.264 C 269.397 194.873,268.594 194.022,268.594 192.444 C 268.594 190.765,269.872 189.923,270.677 191.071 M276.659 191.071 C 277.212 191.861,276.989 193.799,276.291 194.264 C 275.367 194.881,274.576 194.094,274.576 192.557 C 274.576 190.769,275.823 189.879,276.659 191.071 M290.417 191.071 C 291.387 192.456,290.364 194.771,288.978 194.331 C 287.551 193.878,287.949 190.628,289.432 190.628 C 289.903 190.628,290.201 190.762,290.417 191.071 M215.327 191.699 C 215.447 192.179,215.602 192.717,215.671 192.896 C 215.774 193.164,215.650 193.220,214.963 193.220 C 214.265 193.220,214.147 193.164,214.231 192.871 C 214.286 192.679,214.441 192.141,214.575 191.675 C 214.884 190.601,215.052 190.607,215.327 191.699 M240.008 191.835 C 240.400 193.145,240.373 193.220,239.515 193.220 L 238.750 193.220 239.062 192.023 C 239.423 190.639,239.637 190.596,240.008 191.835 M321.457 192.024 L 321.769 193.220 321.004 193.220 C 320.120 193.220,320.138 193.277,320.575 191.892 C 320.998 190.548,321.075 190.559,321.457 192.024 " stroke="none" fill="#143c64" fill-rule="evenodd"></path><path id="path2" d="M186.119 192.522 C 186.120 193.948,186.151 194.505,186.190 193.760 C 186.228 193.016,186.228 191.849,186.189 191.168 C 186.150 190.487,186.119 191.097,186.119 192.522 M196.688 192.522 C 196.688 193.948,196.720 194.505,196.758 193.760 C 196.797 193.016,196.796 191.849,196.758 191.168 C 196.719 190.487,196.687 191.097,196.688 192.522 M210.168 191.566 C 210.114 192.466,210.141 193.130,210.229 193.042 C 210.316 192.955,210.360 192.218,210.327 191.406 L 210.266 189.930 210.168 191.566 M210.845 192.522 C 210.846 193.948,210.877 194.505,210.916 193.760 C 210.954 193.016,210.954 191.849,210.915 191.168 C 210.876 190.487,210.845 191.097,210.845 192.522 M218.209 190.329 C 218.236 190.601,218.420 190.748,218.789 190.790 L 219.329 190.853 219.396 192.984 L 219.464 195.115 219.453 192.921 L 219.442 190.728 218.906 190.666 C 218.611 190.632,218.324 190.452,218.269 190.267 C 218.196 190.024,218.180 190.041,218.209 190.329 M221.336 190.283 C 221.336 190.478,221.123 190.634,220.788 190.685 L 220.239 190.768 220.794 190.798 C 221.323 190.826,221.747 190.374,221.460 190.088 C 221.392 190.019,221.336 190.107,221.336 190.283 M223.208 192.522 C 223.208 193.948,223.240 194.505,223.279 193.760 C 223.317 193.016,223.317 191.849,223.278 191.168 C 223.239 190.487,223.208 191.097,223.208 192.522 M224.006 192.522 C 224.006 193.948,224.038 194.505,224.076 193.760 C 224.115 193.016,224.114 191.849,224.076 191.168 C 224.037 190.487,224.005 191.097,224.006 192.522 M234.895 191.564 C 234.895 192.984,234.872 193.069,234.585 192.710 C 234.287 192.338,234.284 192.341,234.493 192.772 C 234.898 193.608,235.095 193.233,235.095 191.625 C 235.095 190.748,235.050 190.030,234.995 190.030 C 234.940 190.030,234.895 190.720,234.895 191.564 M235.571 192.522 C 235.571 193.948,235.603 194.505,235.642 193.760 C 235.680 193.016,235.680 191.849,235.641 191.168 C 235.602 190.487,235.571 191.097,235.571 192.522 M243.547 192.522 C 243.547 193.948,243.579 194.505,243.618 193.760 C 243.656 193.016,243.656 191.849,243.617 191.168 C 243.578 190.487,243.547 191.097,243.547 192.522 M244.342 192.124 C 244.342 193.330,244.375 193.798,244.415 193.163 C 244.454 192.529,244.454 191.542,244.414 190.970 C 244.374 190.398,244.341 190.917,244.342 192.124 M262.291 192.522 C 262.291 193.948,262.323 194.505,262.361 193.760 C 262.400 193.016,262.400 191.849,262.361 191.168 C 262.322 190.487,262.290 191.097,262.291 192.522 M263.071 191.027 C 263.071 191.630,263.108 191.877,263.154 191.575 C 263.199 191.274,263.199 190.780,263.154 190.479 C 263.108 190.177,263.071 190.424,263.071 191.027 M279.838 192.522 C 279.839 193.948,279.870 194.505,279.909 193.760 C 279.947 193.016,279.947 191.849,279.908 191.168 C 279.869 190.487,279.838 191.097,279.838 192.522 M280.633 192.124 C 280.633 193.330,280.666 193.798,280.706 193.163 C 280.746 192.529,280.745 191.542,280.705 190.970 C 280.665 190.398,280.632 190.917,280.633 192.124 M293.597 192.522 C 293.597 193.948,293.629 194.505,293.667 193.760 C 293.706 193.016,293.706 191.849,293.667 191.168 C 293.628 190.487,293.597 191.097,293.597 192.522 M296.311 190.285 C 296.311 190.531,296.065 190.625,295.264 190.681 L 294.217 190.754 295.270 190.791 C 296.272 190.826,296.834 190.486,296.435 190.088 C 296.367 190.019,296.311 190.108,296.311 190.285 M307.136 190.927 C 307.137 191.476,307.176 191.676,307.222 191.373 C 307.268 191.070,307.266 190.621,307.219 190.376 C 307.172 190.131,307.134 190.379,307.136 190.927 M307.918 191.950 C 307.883 193.667,307.928 194.010,308.225 194.243 C 308.532 194.483,308.545 194.479,308.333 194.206 C 308.193 194.026,308.064 193.062,308.025 191.913 L 307.960 189.930 307.918 191.950 M310.344 192.124 C 310.344 193.330,310.377 193.798,310.417 193.163 C 310.456 192.529,310.456 191.542,310.416 190.970 C 310.376 190.398,310.343 190.917,310.344 192.124 M191.675 190.766 C 191.867 190.816,192.181 190.816,192.373 190.766 C 192.565 190.715,192.408 190.674,192.024 190.674 C 191.640 190.674,191.483 190.715,191.675 190.766 M193.505 190.892 C 193.449 191.038,193.434 192.002,193.470 193.036 L 193.536 194.915 193.578 192.885 L 193.619 190.854 194.167 190.771 L 194.716 190.688 194.161 190.658 C 193.856 190.642,193.561 190.747,193.505 190.892 M198.159 190.773 C 198.517 190.817,199.056 190.816,199.356 190.771 C 199.655 190.725,199.362 190.689,198.704 190.690 C 198.046 190.691,197.801 190.728,198.159 190.773 M203.143 190.769 C 203.391 190.817,203.750 190.815,203.941 190.765 C 204.131 190.715,203.928 190.676,203.490 190.678 C 203.051 190.681,202.895 190.721,203.143 190.769 M240.310 190.828 C 240.310 190.992,240.430 191.441,240.578 191.825 C 240.726 192.208,240.847 192.388,240.847 192.223 C 240.847 192.059,240.726 191.610,240.578 191.226 C 240.430 190.842,240.310 190.663,240.310 190.828 M290.229 190.998 C 290.339 191.157,290.483 191.790,290.549 192.404 L 290.669 193.519 290.699 192.495 C 290.719 191.766,290.627 191.360,290.379 191.089 C 290.187 190.880,290.120 190.839,290.229 190.998 M327.866 190.766 C 328.058 190.816,328.372 190.816,328.564 190.766 C 328.756 190.715,328.599 190.674,328.215 190.674 C 327.832 190.674,327.674 190.715,327.866 190.766 M330.060 190.766 C 330.252 190.816,330.566 190.816,330.758 190.766 C 330.950 190.715,330.793 190.674,330.409 190.674 C 330.025 190.674,329.868 190.715,330.060 190.766 M239.208 191.450 C 239.040 192.289,239.203 192.440,239.385 191.613 C 239.491 191.126,239.571 191.040,239.718 191.250 C 239.880 191.481,239.898 191.479,239.833 191.239 C 239.686 190.695,239.335 190.814,239.208 191.450 M287.400 192.522 C 287.401 193.180,287.438 193.426,287.482 193.067 C 287.527 192.709,287.526 192.170,287.480 191.871 C 287.435 191.571,287.399 191.864,287.400 192.522 M229.366 192.423 C 229.366 192.916,229.405 193.118,229.453 192.871 C 229.500 192.625,229.500 192.221,229.453 191.974 C 229.405 191.727,229.366 191.929,229.366 192.423 M230.156 192.423 C 230.156 192.807,230.197 192.964,230.247 192.772 C 230.297 192.580,230.297 192.266,230.247 192.074 C 230.197 191.882,230.156 192.039,230.156 192.423 M232.941 193.470 L 232.982 195.115 233.050 193.563 C 233.097 192.489,233.186 192.053,233.339 192.148 C 233.474 192.231,233.505 192.194,233.419 192.055 C 233.062 191.477,232.904 191.945,232.941 193.470 M291.372 192.423 C 291.372 192.807,291.413 192.964,291.463 192.772 C 291.514 192.580,291.514 192.266,291.463 192.074 C 291.413 191.882,291.372 192.039,291.372 192.423 M303.705 191.984 C 303.687 192.272,304.241 193.420,304.397 193.420 C 304.452 193.420,304.372 193.173,304.220 192.871 C 304.068 192.570,303.893 192.188,303.832 192.024 C 303.757 191.823,303.715 191.810,303.705 191.984 M203.143 192.165 C 203.391 192.213,203.750 192.211,203.941 192.161 C 204.131 192.111,203.928 192.072,203.490 192.074 C 203.051 192.076,202.895 192.117,203.143 192.165 M263.073 193.918 C 263.074 194.576,263.111 194.821,263.155 194.463 C 263.200 194.105,263.199 193.566,263.153 193.267 C 263.108 192.967,263.072 193.260,263.073 193.918 " stroke="none" fill="#62524d" fill-rule="evenodd"></path><path id="path3" d="M72.828 0.299 C 52.680 3.951,44.858 28.768,59.316 43.170 C 72.764 56.566,95.663 51.161,101.554 33.200 C 107.544 14.938,91.765 -3.134,72.828 0.299 M202.193 117.408 L 202.293 180.359 202.343 117.558 C 202.371 83.017,202.326 54.689,202.244 54.606 C 202.161 54.524,202.139 82.785,202.193 117.408 M331.655 54.582 C 332.066 54.625,332.739 54.625,333.151 54.582 C 333.562 54.539,333.225 54.504,332.403 54.504 C 331.580 54.504,331.244 54.539,331.655 54.582 M364.039 54.586 C 363.988 54.668,369.501 54.736,376.290 54.736 C 383.079 54.736,388.634 54.668,388.634 54.586 C 388.634 54.504,383.121 54.437,376.383 54.437 C 369.644 54.437,364.090 54.504,364.039 54.586 M333.896 82.652 C 333.896 98.006,333.919 104.258,333.948 96.545 C 333.977 88.832,333.977 76.269,333.948 68.628 C 333.919 60.988,333.896 67.298,333.896 82.652 M58.824 58.512 C 51.016 60.295,44.327 62.846,37.886 66.500 C 34.531 68.403,30.847 70.728,30.741 71.010 C 30.705 71.107,30.570 71.188,30.442 71.190 C 30.314 71.191,29.906 71.461,29.534 71.788 C 29.163 72.115,28.804 72.384,28.737 72.386 C 28.669 72.388,28.310 72.657,27.939 72.984 C 27.568 73.312,27.209 73.581,27.141 73.582 C 27.074 73.584,26.642 73.920,26.181 74.330 C 25.720 74.740,24.958 75.386,24.486 75.767 C 23.352 76.682,17.424 82.616,16.544 83.717 C 16.164 84.193,15.718 84.725,15.553 84.899 C 15.190 85.284,14.366 86.336,13.958 86.935 C 13.794 87.177,13.491 87.569,13.287 87.805 C 12.772 88.400,10.169 92.278,10.169 92.450 C 10.169 92.528,10.036 92.738,9.874 92.917 C 9.075 93.801,5.866 100.206,4.518 103.610 C -1.591 119.033,-1.562 137.423,4.596 152.867 C 13.136 174.287,32.444 190.819,56.032 196.908 C 58.610 197.573,63.831 198.648,63.943 198.536 C 64.120 198.360,63.498 198.015,62.313 197.631 C 37.836 189.712,24.491 163.166,33.331 139.980 C 33.770 138.829,34.150 137.797,34.176 137.687 C 35.029 134.069,42.536 124.096,46.972 120.687 C 49.718 118.577,52.052 117.002,53.962 115.970 L 54.983 115.418 55.219 113.592 C 55.564 110.928,55.566 110.913,56.429 104.300 C 56.865 100.962,57.186 98.196,57.143 98.153 C 56.995 98.006,51.542 99.518,48.321 100.600 C 37.092 104.373,26.319 110.716,18.104 118.391 C 16.461 119.925,16.540 119.937,16.871 118.200 C 20.697 98.122,36.412 81.213,57.428 74.562 C 58.908 74.094,60.185 73.656,60.265 73.589 C 60.345 73.523,60.815 70.285,61.311 66.395 C 61.807 62.505,62.265 58.986,62.330 58.574 C 62.476 57.648,62.602 57.650,58.824 58.512 M92.399 58.652 C 92.469 59.130,92.569 59.880,92.622 60.319 C 92.721 61.131,93.280 65.414,93.430 66.500 C 93.475 66.830,93.692 68.529,93.912 70.277 C 94.383 74.013,93.985 73.511,97.308 74.562 C 117.981 81.105,134.133 98.190,137.875 117.472 C 138.053 118.391,138.233 119.301,138.274 119.494 C 138.316 119.694,137.648 119.217,136.722 118.388 C 127.698 110.304,117.665 104.413,106.481 100.629 C 103.125 99.493,97.743 98.003,97.582 98.165 C 97.502 98.244,99.659 115.289,99.759 115.372 C 99.782 115.391,100.743 115.962,101.894 116.641 C 122.276 128.654,129.910 154.154,119.314 174.822 C 114.003 185.180,103.852 193.910,93.021 197.433 C 88.296 198.970,91.308 198.757,98.001 197.081 C 101.806 196.128,106.971 194.420,108.522 193.602 C 108.712 193.502,108.957 193.420,109.066 193.420 C 109.174 193.420,109.942 193.102,110.770 192.714 C 111.599 192.326,112.521 191.917,112.819 191.804 C 113.116 191.692,114.437 191.020,115.753 190.311 C 118.265 188.958,118.425 188.866,119.801 187.986 C 120.272 187.684,120.705 187.438,120.761 187.438 C 121.543 187.438,129.396 181.358,133.308 177.724 C 158.476 154.344,162.202 116.048,142.005 88.343 C 130.851 73.044,111.146 60.774,93.145 57.921 L 92.271 57.783 92.399 58.652 M279.561 59.684 C 279.561 59.718,279.853 60.009,280.209 60.332 L 280.857 60.917 280.272 60.269 C 279.726 59.665,279.561 59.529,279.561 59.684 M231.101 61.964 L 229.811 63.310 231.157 62.020 C 231.897 61.310,232.502 60.704,232.502 60.674 C 232.502 60.527,232.299 60.714,231.101 61.964 M282.453 62.612 C 282.881 63.051,283.276 63.410,283.331 63.410 C 283.386 63.410,283.080 63.051,282.652 62.612 C 282.224 62.173,281.828 61.815,281.774 61.815 C 281.719 61.815,282.024 62.173,282.453 62.612 M255.484 72.924 C 255.785 72.970,256.279 72.970,256.580 72.924 C 256.882 72.879,256.635 72.841,256.032 72.841 C 255.429 72.841,255.182 72.879,255.484 72.924 M249.042 75.324 L 248.355 76.072 249.103 75.385 C 249.514 75.007,249.850 74.670,249.850 74.637 C 249.850 74.485,249.682 74.628,249.042 75.324 M234.895 112.164 C 235.602 112.876,236.225 113.460,236.280 113.460 C 236.334 113.460,235.801 112.876,235.095 112.164 C 234.388 111.451,233.765 110.867,233.710 110.867 C 233.656 110.867,234.189 111.451,234.895 112.164 M277.567 115.753 C 277.939 116.137,278.289 116.451,278.343 116.451 C 278.398 116.451,278.139 116.137,277.767 115.753 C 277.395 115.369,277.045 115.055,276.991 115.055 C 276.936 115.055,277.195 115.369,277.567 115.753 M281.456 119.442 C 282.988 120.977,284.287 122.233,284.342 122.233 C 284.396 122.233,283.187 120.977,281.655 119.442 C 280.123 117.906,278.824 116.650,278.769 116.650 C 278.714 116.650,279.923 117.906,281.456 119.442 M333.896 150.847 C 333.896 166.969,333.919 173.535,333.948 165.438 C 333.977 157.341,333.977 144.151,333.948 136.126 C 333.919 128.101,333.896 134.726,333.896 150.847 M284.347 122.495 C 284.347 122.529,284.639 122.821,284.995 123.143 L 285.643 123.729 285.057 123.081 C 284.511 122.477,284.347 122.341,284.347 122.495 M262.911 133.998 C 264.004 135.095,264.943 135.992,264.998 135.992 C 265.052 135.992,264.203 135.095,263.111 133.998 C 262.018 132.901,261.079 132.004,261.024 132.004 C 260.970 132.004,261.819 132.901,262.911 133.998 M293.370 147.059 C 293.373 147.498,293.413 147.653,293.461 147.405 C 293.509 147.157,293.507 146.798,293.457 146.608 C 293.407 146.417,293.368 146.620,293.370 147.059 " stroke="none" fill="#043c64" fill-rule="evenodd"></path><path id="path4" d="M183.394 189.960 C 183.817 190.052,183.840 190.162,183.901 192.486 L 183.966 194.915 183.957 192.423 L 183.948 189.930 183.450 189.898 C 183.022 189.870,183.014 189.878,183.394 189.960 M188.723 190.085 C 188.664 190.241,188.646 190.988,188.685 191.745 L 188.755 193.121 188.794 191.575 C 188.825 190.366,188.897 190.030,189.127 190.030 C 189.365 190.030,189.432 190.486,189.485 192.473 L 189.549 194.915 189.540 192.425 C 189.532 190.215,189.492 189.928,189.182 189.868 C 188.990 189.831,188.783 189.929,188.723 190.085 M192.279 189.977 C 192.803 190.019,193.611 190.018,194.074 189.976 C 194.537 189.934,194.108 189.901,193.121 189.901 C 192.134 189.902,191.755 189.936,192.279 189.977 M197.358 189.977 C 197.824 190.018,198.587 190.018,199.053 189.977 C 199.519 189.935,199.138 189.900,198.205 189.900 C 197.273 189.900,196.892 189.935,197.358 189.977 M201.881 190.091 C 201.826 190.235,201.810 191.424,201.845 192.733 L 201.908 195.115 201.951 192.582 L 201.994 190.049 203.240 189.978 L 204.487 189.907 203.234 189.869 C 202.357 189.842,201.951 189.909,201.881 190.091 M218.893 189.977 C 219.359 190.018,220.122 190.018,220.588 189.977 C 221.054 189.935,220.673 189.900,219.741 189.900 C 218.809 189.900,218.427 189.935,218.893 189.977 M232.190 190.091 C 232.135 190.235,232.119 191.424,232.154 192.733 L 232.217 195.115 232.260 192.587 C 232.298 190.369,232.346 190.048,232.652 189.968 C 232.979 189.882,232.979 189.875,232.646 189.854 C 232.450 189.841,232.246 189.948,232.190 190.091 M235.338 189.955 C 235.633 190.043,235.690 190.395,235.746 192.486 L 235.810 194.915 235.802 192.425 C 235.793 190.085,235.769 189.933,235.394 189.894 C 235.095 189.864,235.081 189.879,235.338 189.955 M239.005 189.994 C 238.950 190.084,239.169 190.118,239.492 190.071 C 239.815 190.023,240.080 189.950,240.080 189.908 C 240.080 189.756,239.104 189.834,239.005 189.994 M265.149 189.960 C 265.572 190.052,265.594 190.162,265.656 192.486 L 265.721 194.915 265.712 192.423 L 265.703 189.930 265.204 189.898 C 264.777 189.870,264.769 189.878,265.149 189.960 M294.263 189.974 C 294.617 190.018,295.245 190.019,295.659 189.976 C 296.072 189.933,295.783 189.897,295.015 189.896 C 294.247 189.895,293.909 189.930,294.263 189.974 M301.388 190.077 C 301.330 190.229,301.311 191.424,301.346 192.733 L 301.410 195.115 301.453 192.572 C 301.493 190.198,301.521 190.030,301.885 190.030 C 302.219 190.030,302.285 190.198,302.349 191.227 L 302.424 192.425 302.408 191.177 C 302.393 189.935,301.721 189.210,301.388 190.077 M304.639 189.972 C 304.900 190.022,305.034 190.150,304.957 190.274 C 304.877 190.404,304.917 190.433,305.057 190.346 C 305.401 190.134,305.128 189.826,304.624 189.858 C 304.191 189.885,304.191 189.885,304.639 189.972 M309.557 190.096 C 309.501 190.241,309.485 191.161,309.522 192.139 L 309.589 193.918 309.630 191.989 C 309.665 190.339,309.722 190.046,310.020 189.968 C 310.347 189.882,310.347 189.875,310.014 189.854 C 309.818 189.841,309.613 189.950,309.557 190.096 M314.590 189.963 C 314.516 190.037,314.458 190.194,314.460 190.312 C 314.462 190.459,314.510 190.455,314.609 190.302 C 314.690 190.178,314.935 190.031,315.155 189.976 C 315.540 189.880,315.540 189.876,315.138 189.854 C 314.909 189.841,314.663 189.890,314.590 189.963 M325.268 189.955 C 325.564 190.043,325.620 190.395,325.676 192.486 L 325.741 194.915 325.732 192.425 C 325.723 190.085,325.699 189.933,325.324 189.894 C 325.025 189.864,325.011 189.879,325.268 189.955 M328.365 189.977 C 328.831 190.018,329.594 190.018,330.060 189.977 C 330.526 189.935,330.145 189.900,329.212 189.900 C 328.280 189.900,327.899 189.935,328.365 189.977 M306.951 191.825 C 306.951 192.866,306.985 193.293,307.026 192.772 C 307.067 192.251,307.067 191.398,307.026 190.877 C 306.985 190.356,306.951 190.783,306.951 191.825 M310.541 191.924 C 310.542 193.021,310.575 193.444,310.616 192.865 C 310.656 192.285,310.656 191.388,310.615 190.871 C 310.574 190.353,310.541 190.828,310.541 191.924 M220.214 192.921 C 220.215 194.128,220.247 194.595,220.287 193.961 C 220.327 193.326,220.326 192.339,220.286 191.767 C 220.246 191.196,220.214 191.715,220.214 192.921 M294.363 191.426 C 294.363 191.810,294.404 191.967,294.455 191.775 C 294.505 191.583,294.505 191.269,294.455 191.077 C 294.404 190.885,294.363 191.042,294.363 191.426 M329.686 192.921 C 329.686 194.128,329.719 194.595,329.759 193.961 C 329.798 193.326,329.798 192.339,329.758 191.767 C 329.718 191.196,329.685 191.715,329.686 192.921 M314.994 191.504 C 314.913 191.712,314.893 191.929,314.950 191.986 C 315.132 192.168,315.292 191.870,315.216 191.491 C 315.146 191.144,315.136 191.145,314.994 191.504 M276.824 192.423 C 276.824 192.916,276.863 193.118,276.910 192.871 C 276.958 192.625,276.958 192.221,276.910 191.974 C 276.863 191.727,276.824 191.929,276.824 192.423 M208.259 192.094 C 208.202 192.242,208.184 192.982,208.218 193.739 L 208.280 195.115 208.377 193.469 C 208.474 191.826,208.454 191.586,208.259 192.094 M225.968 192.423 C 225.968 192.807,226.010 192.964,226.060 192.772 C 226.110 192.580,226.110 192.266,226.060 192.074 C 226.010 191.882,225.968 192.039,225.968 192.423 M226.970 192.522 C 226.972 192.961,227.013 193.117,227.060 192.869 C 227.108 192.621,227.106 192.262,227.056 192.071 C 227.006 191.881,226.967 192.084,226.970 192.522 M256.278 192.423 C 256.278 192.807,256.319 192.964,256.369 192.772 C 256.419 192.580,256.419 192.266,256.369 192.074 C 256.319 191.882,256.278 192.039,256.278 192.423 M270.838 192.522 C 270.840 192.961,270.881 193.117,270.929 192.869 C 270.976 192.621,270.975 192.262,270.925 192.071 C 270.875 191.881,270.836 192.084,270.838 192.522 M288.182 192.423 C 288.182 192.807,288.223 192.964,288.273 192.772 C 288.323 192.580,288.323 192.266,288.273 192.074 C 288.223 191.882,288.182 192.039,288.182 192.423 M295.364 192.162 C 296.429 192.284,296.358 192.781,295.264 192.860 L 294.417 192.921 294.398 194.018 L 294.379 195.115 294.458 194.079 L 294.537 193.043 295.374 192.982 C 296.583 192.894,296.617 192.136,295.414 192.100 L 294.616 192.076 295.364 192.162 M291.190 193.769 C 290.984 194.431,290.990 194.472,291.241 194.129 C 291.479 193.805,291.644 193.021,291.475 193.021 C 291.447 193.021,291.319 193.357,291.190 193.769 M302.372 193.702 C 302.312 193.857,302.296 194.239,302.335 194.549 C 302.394 195.011,302.425 194.959,302.505 194.267 C 302.606 193.395,302.561 193.208,302.372 193.702 M303.506 193.519 C 303.506 193.629,303.678 194.033,303.888 194.417 C 304.098 194.801,304.270 195.025,304.270 194.915 C 304.270 194.806,304.098 194.402,303.888 194.018 C 303.678 193.634,303.506 193.410,303.506 193.519 " stroke="none" fill="#935f40" fill-rule="evenodd"></path></g></svg>